<svg xmlns="http://www.w3.org/2000/svg" xmlns:xlink="http://www.w3.org/1999/xlink" width="300" zoomAndPan="magnify" viewBox="0 0 224.87999 37.5" height="50" preserveAspectRatio="xMidYMid meet" version="1.0"><defs><g/><clipPath id="fd686d1408"><path d="M 9.773438 7 L 45 7 L 45 35.027344 L 9.773438 35.027344 Z M 9.773438 7 " clip-rule="nonzero"/></clipPath><clipPath id="96dc63509f"><path d="M 28 22 L 45 22 L 45 35.027344 L 28 35.027344 Z M 28 22 " clip-rule="nonzero"/></clipPath><clipPath id="919fa07513"><path d="M 9.773438 1.71875 L 22 1.71875 L 22 18 L 9.773438 18 Z M 9.773438 1.71875 " clip-rule="nonzero"/></clipPath><clipPath id="a38b71a254"><path d="M 9.773438 7 L 20 7 L 20 20 L 9.773438 20 Z M 9.773438 7 " clip-rule="nonzero"/></clipPath><clipPath id="a9092a13cc"><path d="M 23 24 L 36 24 L 36 35.027344 L 23 35.027344 Z M 23 24 " clip-rule="nonzero"/></clipPath></defs><g fill="#fff435" fill-opacity="1"><g transform="translate(38.473031, 34.054404)"><g/></g></g><g fill="#fff435" fill-opacity="1"><g transform="translate(49.346661, 34.054404)"><g><path d="M 39.140625 0 L 31.8125 0 L 31.765625 -21.234375 L 23.9375 -3.265625 L 18.515625 -3.265625 L 10.6875 -21.234375 L 10.6875 0 L 3.265625 0 L 3.265625 -32.703125 L 12.359375 -32.703125 L 21.234375 -13.25 L 30.09375 -32.703125 L 39.140625 -32.703125 Z M 39.140625 0 "/></g></g></g><g fill="#fff435" fill-opacity="1"><g transform="translate(91.801493, 34.054404)"><g><path d="M 28.828125 -26.125 L 11.578125 -26.125 L 11.578125 -19.640625 L 27.15625 -19.640625 L 27.15625 -13.109375 L 11.578125 -13.109375 L 11.578125 -6.53125 L 29.34375 -6.53125 L 29.34375 0 L 3.265625 0 L 3.265625 -32.65625 L 28.828125 -32.65625 Z M 28.828125 -26.125 "/></g></g></g><g fill="#fff435" fill-opacity="1"><g transform="translate(123.246074, 34.054404)"><g><path d="M 3.265625 -32.65625 L 17.3125 -32.65625 C 22.4375 -32.65625 26.609375 -31.144531 29.828125 -28.125 C 33.054688 -25.113281 34.671875 -21.179688 34.671875 -16.328125 C 34.671875 -11.503906 33.035156 -7.578125 29.765625 -4.546875 C 26.503906 -1.515625 22.242188 0 16.984375 0 L 3.265625 0 Z M 11.578125 -26.03125 L 11.578125 -6.625 L 17.5 -6.625 C 20.050781 -6.625 22.140625 -7.515625 23.765625 -9.296875 C 25.398438 -11.085938 26.21875 -13.414062 26.21875 -16.28125 C 26.21875 -19.144531 25.363281 -21.484375 23.65625 -23.296875 C 21.945312 -25.117188 19.769531 -26.03125 17.125 -26.03125 Z M 11.578125 -26.03125 "/></g></g></g><g fill="#fff435" fill-opacity="1"><g transform="translate(159.029464, 34.054404)"><g><path d="M 11.578125 0 L 3.265625 0 L 3.265625 -32.65625 L 11.578125 -32.65625 Z M 11.578125 0 "/></g></g></g><g fill="#fff435" fill-opacity="1"><g transform="translate(173.865323, 34.054404)"><g><path d="M 24.96875 -6.015625 L 10.6875 -6.015625 L 8.3125 0 L -0.234375 0 L 13.859375 -32.65625 L 22.390625 -32.65625 L 36.15625 0 L 27.296875 0 Z M 22.53125 -12.3125 L 17.875 -24.40625 L 13.109375 -12.3125 Z M 22.53125 -12.3125 "/></g></g></g><g clip-path="url(#fd686d1408)"><path fill="#fff435" d="M 9.773438 32.230469 L 9.773438 24.976562 L 26.152344 8.59375 C 27.148438 7.597656 28.78125 7.597656 29.78125 8.59375 C 30.777344 9.59375 30.777344 11.226562 29.78125 12.222656 L 25.175781 16.828125 C 24.445312 17.839844 24.539062 19.273438 25.449219 20.179688 C 26.355469 21.089844 27.789062 21.183594 28.800781 20.453125 L 40.101562 9.152344 C 41.101562 8.15625 42.730469 8.15625 43.730469 9.152344 C 44.726562 10.152344 44.726562 11.785156 43.730469 12.78125 L 21.230469 35.28125 L 13.976562 35.28125 L 19.769531 29.488281 C 20.496094 28.472656 20.40625 27.042969 19.496094 26.132812 C 18.585938 25.222656 17.15625 25.132812 16.140625 25.863281 Z M 9.773438 32.230469 " fill-opacity="1" fill-rule="evenodd"/></g><g clip-path="url(#96dc63509f)"><path fill="#f89930" d="M 35.738281 35.28125 L 28.484375 35.28125 L 40.304688 23.460938 C 41.300781 22.460938 42.933594 22.460938 43.929688 23.460938 C 44.929688 24.457031 44.929688 26.089844 43.929688 27.085938 Z M 35.738281 35.28125 " fill-opacity="1" fill-rule="evenodd"/></g><g clip-path="url(#919fa07513)"><path fill="#f89930" d="M 9.773438 17.722656 L 9.773438 10.46875 L 17.523438 2.71875 C 18.519531 1.71875 20.152344 1.71875 21.148438 2.71875 C 22.148438 3.714844 22.148438 5.347656 21.148438 6.34375 Z M 9.773438 17.722656 " fill-opacity="1" fill-rule="evenodd"/></g><path fill="#5182c3" d="M 30.382812 4.367188 C 31.382812 3.363281 33.007812 3.363281 34.007812 4.367188 C 35.011719 5.367188 35.011719 6.992188 34.007812 7.992188 C 33.007812 8.996094 31.382812 8.996094 30.382812 7.992188 C 29.378906 6.992188 29.378906 5.367188 30.382812 4.367188 Z M 30.382812 4.367188 " fill-opacity="1" fill-rule="evenodd"/><g clip-path="url(#a38b71a254)"><path fill="#5182c3" d="M 9.773438 19.246094 L 9.773438 16.195312 L 17.875 8.09375 C 18.292969 7.675781 18.980469 7.675781 19.398438 8.09375 C 19.820312 8.511719 19.820312 9.199219 19.398438 9.617188 Z M 9.773438 19.246094 " fill-opacity="1" fill-rule="evenodd"/></g><g clip-path="url(#a9092a13cc)"><path fill="#5182c3" d="M 26.183594 35.28125 L 23.132812 35.28125 L 33.585938 24.824219 C 34.007812 24.40625 34.691406 24.40625 35.113281 24.824219 C 35.53125 25.246094 35.53125 25.929688 35.113281 26.351562 Z M 26.183594 35.28125 " fill-opacity="1" fill-rule="evenodd"/></g><path fill="#fff9eb" d="M 32.6875 13.167969 C 33.011719 12.84375 33.542969 12.84375 33.867188 13.167969 C 34.195312 13.496094 34.195312 14.023438 33.867188 14.351562 C 33.542969 14.675781 33.011719 14.675781 32.6875 14.351562 C 32.363281 14.023438 32.363281 13.496094 32.6875 13.167969 Z M 37.125 13.167969 C 37.453125 12.84375 37.980469 12.84375 38.304688 13.167969 C 38.632812 13.496094 38.632812 14.023438 38.304688 14.351562 C 37.980469 14.675781 37.453125 14.675781 37.125 14.351562 C 36.800781 14.023438 36.800781 13.496094 37.125 13.167969 Z M 34.90625 15.386719 C 35.234375 15.0625 35.761719 15.0625 36.085938 15.386719 C 36.414062 15.714844 36.414062 16.242188 36.085938 16.570312 C 35.761719 16.894531 35.234375 16.894531 34.90625 16.570312 C 34.582031 16.242188 34.582031 15.714844 34.90625 15.386719 Z M 34.90625 10.949219 C 35.234375 10.625 35.761719 10.625 36.085938 10.949219 C 36.414062 11.277344 36.414062 11.804688 36.085938 12.128906 C 35.761719 12.457031 35.234375 12.457031 34.90625 12.128906 C 34.582031 11.804688 34.582031 11.277344 34.90625 10.949219 Z M 34.90625 10.949219 " fill-opacity="1" fill-rule="evenodd"/><path fill="#fff9eb" d="M 12.964844 18.382812 C 13.292969 18.054688 13.820312 18.054688 14.148438 18.382812 C 14.472656 18.707031 14.472656 19.238281 14.148438 19.5625 C 13.820312 19.890625 13.292969 19.890625 12.964844 19.5625 C 12.640625 19.238281 12.640625 18.707031 12.964844 18.382812 Z M 17.402344 18.382812 C 17.730469 18.054688 18.257812 18.054688 18.585938 18.382812 C 18.910156 18.707031 18.910156 19.238281 18.585938 19.5625 C 18.257812 19.890625 17.730469 19.890625 17.402344 19.5625 C 17.078125 19.238281 17.078125 18.707031 17.402344 18.382812 Z M 15.183594 20.601562 C 15.511719 20.273438 16.039062 20.273438 16.367188 20.601562 C 16.691406 20.925781 16.691406 21.457031 16.367188 21.78125 C 16.039062 22.109375 15.511719 22.109375 15.183594 21.78125 C 14.859375 21.457031 14.859375 20.925781 15.183594 20.601562 Z M 15.183594 16.164062 C 15.511719 15.835938 16.039062 15.835938 16.367188 16.164062 C 16.691406 16.488281 16.691406 17.019531 16.367188 17.34375 C 16.039062 17.671875 15.511719 17.671875 15.183594 17.34375 C 14.859375 17.019531 14.859375 16.488281 15.183594 16.164062 Z M 15.183594 16.164062 " fill-opacity="1" fill-rule="evenodd"/></svg>